<?xml version="1.0" encoding="utf-8"?>
<!-- Svg Vector Icons : http://www.onlinewebfonts.com/icon -->
<!DOCTYPE svg PUBLIC "-//W3C//DTD SVG 1.1//EN" "http://www.w3.org/Graphics/SVG/1.1/DTD/svg11.dtd">
<svg version="1.1" xmlns="http://www.w3.org/2000/svg" xmlns:xlink="http://www.w3.org/1999/xlink" x="0px" y="0px" viewBox="0 0 1000 1000" enable-background="new 0 0 1000 1000" xml:space="preserve">
<metadata> Svg Vector Icons : http://www.onlinewebfonts.com/icon </metadata>
<g><g><g><path d="M500,10c-169.1,0-306.3,137.1-306.3,306.3C193.8,530.6,500,990,500,990s306.3-459.4,306.3-673.8C806.3,147.1,669.1,10,500,10z M528.5,559.4c-9.4,0.8-18.5,1.8-28.5,1.8s-19.1-1-28.5-1.8C349.6,545.3,255,441.9,255,316.3c0-135.3,109.7-245,245-245c135.2,0,245,109.7,245,245C745,441.9,650.2,545.3,528.5,559.4z" fill=" white" data-original="#000000" style=""/><circle cx="500" cy="316.3" r="122.5" fill=" white" data-original="#000000" style=""/></g></g><g></g><g></g><g></g><g></g><g></g><g></g><g></g><g></g><g></g><g></g><g></g><g></g><g></g><g></g><g></g></g>
</svg>
