<?xml version="1.0" encoding="UTF-8" standalone="no"?>
<!-- Created with Inkscape (http://www.inkscape.org/) -->

<svg
   width="64pt"
   height="64pt"
   viewBox="0 0 22.577778 22.577778"
   version="1.1"
   id="svg831"
   inkscape:version="1.1.1 (3bf5ae0d25, 2021-09-20)"
   sodipodi:docname="Export - Unblash - 64px.svg"
   inkscape:export-filename="C:\Users\User\Desktop\CARLOS PROJECT\6. JUNI 1\Done\1\EXPAND\18 - Children Toy Blocks.png"
   inkscape:export-xdpi="576"
   inkscape:export-ydpi="576"
   xmlns:inkscape="http://www.inkscape.org/namespaces/inkscape"
   xmlns:sodipodi="http://sodipodi.sourceforge.net/DTD/sodipodi-0.dtd"
   xmlns="http://www.w3.org/2000/svg"
   xmlns:svg="http://www.w3.org/2000/svg"
   xmlns:rdf="http://www.w3.org/1999/02/22-rdf-syntax-ns#"
   xmlns:cc="http://creativecommons.org/ns#"
   xmlns:dc="http://purl.org/dc/elements/1.1/">
  <defs
     id="defs825">
    <pattern
       id="EMFhbasepattern"
       patternUnits="userSpaceOnUse"
       width="6"
       height="6"
       x="0"
       y="0" />
    <pattern
       id="EMFhbasepattern-9"
       patternUnits="userSpaceOnUse"
       width="6"
       height="6"
       x="0"
       y="0" />
    <pattern
       id="EMFhbasepattern-0"
       patternUnits="userSpaceOnUse"
       width="6"
       height="6"
       x="0"
       y="0" />
    <pattern
       id="EMFhbasepattern-7"
       patternUnits="userSpaceOnUse"
       width="6"
       height="6"
       x="0"
       y="0" />
    <pattern
       id="EMFhbasepattern-2"
       patternUnits="userSpaceOnUse"
       width="6"
       height="6"
       x="0"
       y="0" />
    <pattern
       id="EMFhbasepattern-98"
       patternUnits="userSpaceOnUse"
       width="6"
       height="6"
       x="0"
       y="0" />
    <pattern
       id="EMFhbasepattern-6"
       patternUnits="userSpaceOnUse"
       width="6"
       height="6"
       x="0"
       y="0" />
    <pattern
       id="EMFhbasepattern-01"
       patternUnits="userSpaceOnUse"
       width="6"
       height="6"
       x="0"
       y="0" />
    <pattern
       id="EMFhbasepattern-07"
       patternUnits="userSpaceOnUse"
       width="6"
       height="6"
       x="0"
       y="0" />
    <pattern
       id="EMFhbasepattern-8"
       patternUnits="userSpaceOnUse"
       width="6"
       height="6"
       x="0"
       y="0" />
    <pattern
       id="EMFhbasepattern-4"
       patternUnits="userSpaceOnUse"
       width="6"
       height="6"
       x="0"
       y="0" />
    <pattern
       id="EMFhbasepattern-40"
       patternUnits="userSpaceOnUse"
       width="6"
       height="6"
       x="0"
       y="0" />
    <pattern
       id="EMFhbasepattern-08"
       patternUnits="userSpaceOnUse"
       width="6"
       height="6"
       x="0"
       y="0" />
    <pattern
       id="EMFhbasepattern-04"
       patternUnits="userSpaceOnUse"
       width="6"
       height="6"
       x="0"
       y="0" />
    <pattern
       id="EMFhbasepattern-014"
       patternUnits="userSpaceOnUse"
       width="6"
       height="6"
       x="0"
       y="0" />
    <pattern
       id="EMFhbasepattern-27"
       patternUnits="userSpaceOnUse"
       width="6"
       height="6"
       x="0"
       y="0" />
    <pattern
       id="EMFhbasepattern-09"
       patternUnits="userSpaceOnUse"
       width="6"
       height="6"
       x="0"
       y="0" />
    <pattern
       id="EMFhbasepattern-5"
       patternUnits="userSpaceOnUse"
       width="6"
       height="6"
       x="0"
       y="0" />
    <pattern
       id="EMFhbasepattern-018"
       patternUnits="userSpaceOnUse"
       width="6"
       height="6"
       x="0"
       y="0" />
  </defs>
  <sodipodi:namedview
     id="base"
     pagecolor="#ffffff"
     bordercolor="#666666"
     borderopacity="1.0"
     inkscape:pageopacity="0.0"
     inkscape:pageshadow="2"
     inkscape:zoom="9.1757813"
     inkscape:cx="42.612175"
     inkscape:cy="42.666667"
     inkscape:document-units="pt"
     inkscape:current-layer="layer1"
     showgrid="false"
     units="pt"
     inkscape:window-width="1920"
     inkscape:window-height="1001"
     inkscape:window-x="-9"
     inkscape:window-y="-9"
     inkscape:window-maximized="1"
     inkscape:pagecheckerboard="true"
     inkscape:showpageshadow="false"
     inkscape:object-paths="true"
     inkscape:snap-intersection-paths="true"
     inkscape:snap-smooth-nodes="true"
     inkscape:snap-midpoints="true"
     showguides="true"
     inkscape:snap-bbox="true"
     inkscape:bbox-nodes="true"
     inkscape:snap-nodes="false"
     inkscape:snap-global="true">
    <inkscape:grid
       type="xygrid"
       id="grid1378" />
    <sodipodi:guide
       position="0.97013831,21.607643"
       orientation="78.000048,0"
       id="guide1380"
       inkscape:locked="false" />
    <sodipodi:guide
       position="0.97013831,0.97013129"
       orientation="0,78.000005"
       id="guide1382"
       inkscape:locked="false" />
    <sodipodi:guide
       position="21.607639,0.97013129"
       orientation="-78.000048,0"
       id="guide1384"
       inkscape:locked="false" />
    <sodipodi:guide
       position="21.607639,21.607643"
       orientation="0,-78.000005"
       id="guide1386"
       inkscape:locked="false" />
  </sodipodi:namedview>
  <metadata
     id="metadata828">
    <rdf:RDF>
      <cc:Work
         rdf:about="">
        <dc:format>image/svg+xml</dc:format>
        <dc:type
           rdf:resource="http://purl.org/dc/dcmitype/StillImage" />
      </cc:Work>
    </rdf:RDF>
  </metadata>
  <g
     inkscape:label="Icon"
     inkscape:groupmode="layer"
     id="layer1"
     transform="translate(0,-274.42223)">
    <path
       id="path34545"
       style="color:#000000;display:inline;fill:#868686;stroke-width:1;stroke-linecap:round;stroke-linejoin:round;-inkscape-stroke:none"
       d="m 4.8424722,285.40073 c -0.1719688,0.0668 -0.2568199,0.26069 -0.1891807,0.43232 0.066778,0.17232 0.2611536,0.25725 0.4329692,0.18918 0.3462941,-0.13529 0.6681702,-0.29169 0.9673556,-0.46483 0.101021,0.53907 0.250672,1.05561 0.4427218,1.54011 -0.06448,0.015 -0.1320796,0.0234 -0.2015328,0.0234 -0.3445134,0 -0.6362729,-0.19577 -0.778824,-0.48172 -0.081739,-0.16533 -0.282323,-0.23267 -0.447272,-0.15017 -0.1650819,0.082 -0.2321153,0.28249 -0.1495244,0.44727 0.1031483,0.2069 0.2515175,0.38684 0.4323202,0.52724 -0.3217062,0.2625 -0.6255117,0.53384 -0.8971434,0.78791 -0.031321,-0.0678 -0.066361,-0.15676 -0.1027181,-0.27499 -0.1819212,-0.5916 -0.38616,-1.86547 -0.38616,-4.42786 0,-0.42889 0.048311,-0.93505 0.1404209,-1.43737 0.033558,-0.18122 -0.086516,-0.35521 -0.2678439,-0.38812 v -6.6e-4 c -0.1805298,-0.0323 -0.3532142,0.0874 -0.3861601,0.26783 -0.098944,0.53962 -0.152124,1.0799 -0.152124,1.55765 0,2.59683 0.1971691,3.91449 0.4154145,4.6242 0.1091227,0.35486 0.2233248,0.56232 0.3465072,0.69821 0.245506,0.23437 0.4723824,0.22974 0.6013265,0.10077 0.391196,-0.37707 0.8734177,-0.81568 1.3782199,-1.20529 0.1859853,0.041 0.5459797,0.009 0.7294186,-0.054 0.5346359,1.06704 1.289511,1.93802 2.1876031,2.49639 v 0.82889 c 0,0.54089 -0.2556781,0.81757 -0.7690747,1.08827 -1.4512347,0.66744 -3.1017022,0.77974 -4.4031593,1.52644 -0.6388525,0.3752 -1.1757651,0.92635 -1.4120246,1.71238 H 1.3019825 c -0.1838283,7.3e-4 -0.33227095,0.15032 -0.33155199,0.33416 6.6575e-4,0.18282 0.14873559,0.33084 0.33155199,0.33155 H 21.273192 c 0.183832,7.3e-4 0.333439,-0.14773 0.334155,-0.33155 6.66e-4,-0.18485 -0.149308,-0.33487 -0.334155,-0.33416 h -1.072021 c -0.23626,-0.78603 -0.773175,-1.33718 -1.412028,-1.71238 -1.396427,-0.83916 -3.018472,-0.81787 -4.400556,-1.52644 -0.513397,-0.2707 -0.769075,-0.54738 -0.769075,-1.08827 v -0.83018 c 0.897629,-0.55843 1.652308,-1.42885 2.186954,-2.4951 0.257941,0.0853 0.478233,0.0936 0.729415,0.0533 0.504733,0.38973 0.98491,0.82871 1.376273,1.20594 0.180477,0.18048 0.504087,0.014 0.604095,-0.10139 0.123186,-0.1359 0.237385,-0.34336 0.346508,-0.69821 0.218245,-0.70972 0.415417,-2.02736 0.415415,-4.62419 0,-4.49121 -3.48797,-8.15492 -7.990435,-8.15492 v 4e-5 6.7e-4 c -1.251429,0 -2.4269207,0.28357 -3.4696043,0.78857 -0.1655513,0.08 -0.2348349,0.27915 -0.154727,0.44467 0.080757,0.16482 0.2796768,0.23315 0.4446724,0.15278 0.953775,-0.46194 2.0281629,-0.72033 3.1796589,-0.72033 4.142914,0 7.324728,3.34041 7.324728,7.48921 0,2.5624 -0.20359,3.83626 -0.385512,4.42786 -0.0367,0.11939 -0.07246,0.20889 -0.104014,0.27695 -0.271847,-0.25472 -0.57568,-0.52732 -0.897796,-0.79052 0.180157,-0.14024 0.328797,-0.31958 0.431671,-0.52594 0.08287,-0.16426 0.01677,-0.36458 -0.147573,-0.44727 -0.164949,-0.0825 -0.365533,-0.0151 -0.447272,0.15017 -0.142551,0.28595 -0.436914,0.48173 -0.781427,0.48173 -0.06923,0 -0.135778,-0.009 -0.199583,-0.0234 0.191807,-0.48351 0.341668,-0.99896 0.442722,-1.53684 0.301509,0.17192 0.623579,0.32701 0.968008,0.46158 0.171077,0.0663 0.363577,-0.0182 0.430367,-0.18918 0.06792,-0.1709 -0.01565,-0.3645 -0.186579,-0.43232 -2.565777,-1.01302 -4.225675,-3.65911 -4.786719,-6.39118 -0.02269,-0.1644 -0.163002,-0.28697 -0.328952,-0.28735 -0.188169,-0.003 -0.331882,0.13642 -0.331882,0.32895 -3.32e-4,1.69885 -0.0044,2.85949 -0.123198,3.68349 -0.118796,0.82401 -0.329335,1.29278 -0.778827,1.74228 -0.130389,0.13005 -0.130389,0.34128 0,0.47133 0.130129,0.13082 0.341846,0.13082 0.471976,0 0.549071,-0.54906 0.83717,-1.2125 0.968007,-2.11999 0.06386,-0.44289 0.09582,-0.94922 0.111814,-1.5479 0.521228,1.25406 1.430717,2.79473 2.976828,3.89152 -0.447249,2.92089 -2.387282,5.05197 -4.626793,5.05197 -2.2423304,0 -4.1815482,-2.13646 -4.6254916,-5.06302 1.3530828,-0.98749 2.1563216,-2.33158 2.6303217,-3.50471 v 2.95342 c 6.656e-4,0.18282 0.1487455,0.33082 0.3315554,0.33155 0.4428465,0 0.8303325,-0.24267 1.0915215,-0.60199 0.261195,-0.3593 0.434361,-0.8307 0.564944,-1.39773 0.26116,-1.13405 0.341304,-2.657 0.341304,-4.36414 6.66e-4,-0.18486 -0.149308,-0.33489 -0.334155,-0.33416 -0.183832,6.7e-4 -0.332271,0.15032 -0.331552,0.33416 0,1.68537 -0.08628,3.17997 -0.324402,4.21397 -0.149275,0.52772 -0.23673,1.10623 -0.6735091,1.28721 l -0.00138,-5.03606 c -0.013914,-0.18527 -0.1728544,-0.31867 -0.3328833,-0.32021 -0.1778873,-0.003 -0.305936,0.13674 -0.3293323,0.29579 0,0 -0.4119694,4.80423 -4.4522453,6.38272 z m -0.7169365,-8.98309 c -0.084399,0.0126 -0.1609514,0.056 -0.2138817,0.12291 -0.4073029,0.51763 -0.5459297,1.01148 -0.4622238,1.43739 0.045105,0.22949 0.144778,0.42474 0.2658901,0.5955 -0.1337039,0.0624 -0.2647683,0.14133 -0.38616,0.24509 -0.3670409,0.31374 -0.5701214,0.86082 -0.4615746,1.6142 0.012542,0.0847 0.057258,0.16129 0.1248203,0.21389 0.598687,0.4711 1.1737913,0.56911 1.6291616,0.40762 0.1490851,-0.0528 0.281857,-0.1263 0.4017641,-0.20999 0.062886,0.13409 0.1426044,0.2653 0.2470405,0.38681 0.3141272,0.36549 0.8602067,0.56529 1.6116102,0.45702 0.084399,-0.0126 0.1609513,-0.056 0.2138816,-0.12291 0.4700691,-0.59737 0.5704344,-1.17156 0.4102188,-1.62657 -0.053171,-0.15099 -0.1265176,-0.28512 -0.2112855,-0.40631 0.1319099,-0.062 0.260824,-0.14014 0.3809609,-0.24249 0.3679728,-0.31351 0.5735398,-0.86222 0.4648232,-1.61681 -0.012715,-0.0848 -0.057661,-0.16141 -0.1254695,-0.21389 -0.5958743,-0.46888 -1.1674304,-0.56635 -1.6220118,-0.40761 -0.1529229,0.0535 -0.2883509,0.12773 -0.4108643,0.21324 -0.087873,-0.19017 -0.2079403,-0.37373 -0.3848619,-0.52789 -0.511496,-0.34359 -0.9103045,-0.37328 -1.4718382,-0.3192 z m 0.38616,0.6813 c 0.3005667,-0.004 0.529946,0.0361 0.6481557,0.13913 0.1250996,0.10894 0.2153295,0.27766 0.2866966,0.48562 -0.20808,0.008 -0.4168258,0.0649 -0.6084994,0.17554 -0.1919833,0.11083 -0.3459513,0.26344 -0.4570246,0.44012 -0.1443419,-0.16528 -0.2456492,-0.32699 -0.2775932,-0.48953 -0.034674,-0.17642 0.075106,-0.43763 0.2749936,-0.74696 0.04572,-0.003 0.090333,-0.004 0.1332713,-0.004 z m 2.2214077,0.55715 c 0.1869338,-0.006 0.4243783,0.0953 0.7092642,0.27694 0.018606,0.41843 -0.032653,0.71086 -0.1963335,0.85034 -0.1028917,0.0877 -0.2469374,0.15441 -0.4134641,0.21063 -0.00869,-0.20711 -0.065981,-0.41502 -0.1761793,-0.60589 -0.1103744,-0.19117 -0.2622154,-0.34505 -0.4375193,-0.45638 0.1333644,-0.11712 0.2649381,-0.20936 0.3933131,-0.25419 0.037732,-0.0132 0.077781,-0.02 0.1209192,-0.0215 z m -0.6520566,1.06357 c 0.1045158,0.18102 0.1157525,0.38736 0.034779,0.59681 -0.070042,0.14425 -0.1607515,0.24357 -0.2805256,0.31271 -0.1272565,0.0735 -0.2665524,0.10039 -0.4060047,0.0868 -0.2061196,-0.0237 -0.3925541,-0.1389 -0.5028718,-0.32994 -0.1062607,-0.18405 -0.1169112,-0.39442 -0.035093,-0.60007 0.067259,-0.13949 0.1575794,-0.23979 0.2782589,-0.30947 0.110621,-0.0639 0.2312666,-0.0932 0.3491133,-0.091 0.2249724,0.004 0.4404152,0.12304 0.5623428,0.33417 z m -1.9054533,0.39202 c 0.00842,0.20807 0.065633,0.41702 0.176176,0.60849 0.1101681,0.19082 0.2612135,0.34351 0.4362212,0.45443 -0.1324723,0.11511 -0.2628112,0.20516 -0.3900643,0.25028 -0.2022551,0.0717 -0.480604,-0.0284 -0.8327829,-0.25289 -0.018341,-0.41705 0.033378,-0.70843 0.1963337,-0.84773 0.1029281,-0.0879 0.2472235,-0.15556 0.4141163,-0.21258 z m 2.4495922,0.65725 c 0.1161224,0.1327 0.2072945,0.26307 0.2522397,0.39071 0.071231,0.20229 -0.029723,0.47976 -0.2554917,0.83279 -0.4162599,0.0184 -0.7058891,-0.0343 -0.8451351,-0.19634 -0.088286,-0.10266 -0.1560218,-0.24674 -0.2132326,-0.41347 0.2072679,-0.009 0.4148854,-0.0659 0.6058965,-0.17617 0.1910979,-0.11033 0.3447698,-0.2622 0.4557232,-0.43752 z m 7.9085213,1.48679 c 0.537072,1.02723 1.451309,2.18015 2.957977,2.76879 0.171076,0.0663 0.363575,-0.0182 0.430365,-0.18917 0.0662,-0.17018 -0.01705,-0.36191 -0.186577,-0.42972 -1.317747,-0.51484 -2.123575,-1.52298 -2.612121,-2.4574 -0.05822,-0.11096 -0.224496,-0.20057 -0.374461,-0.15895 -0.260238,0.0839 -0.299208,0.30425 -0.215183,0.46645 z m -1.579756,9.29584 v 0.48563 c 0,0.65866 0.341611,1.15404 0.820435,1.49329 -0.08752,0.26571 -0.366795,0.62077 -0.781428,0.90754 -0.506196,0.35011 -1.174749,0.59421 -1.705225,0.59421 -0.530471,0 -1.196424,-0.2441 -1.7026204,-0.59421 -0.4140203,-0.28634 -0.6948288,-0.64066 -0.7833778,-0.90624 0.4798216,-0.33929 0.8223842,-0.83505 0.8223842,-1.49459 v -0.48497 c 0.521741,0.21842 1.080242,0.3374 1.663614,0.3374 0.584232,0 1.143641,-0.11901 1.666218,-0.33806 z m 1.421781,2.30592 c 1.349209,0.56581 2.864471,0.67438 4.076803,1.36913 0.484202,0.28436 0.84841,0.63076 1.048619,1.13768 H 3.0769139 c 0.1995923,-0.50688 0.5618368,-0.85333 1.0460189,-1.13768 1.3213519,-0.72673 2.7823791,-0.82 4.0774555,-1.36848 0.1710966,0.43976 0.5565677,0.81864 1.003763,1.12793 0.6053244,0.41867 1.3620557,0.71252 2.0835817,0.71252 0.72153,0 1.478259,-0.29385 2.083586,-0.71252 0.447386,-0.30941 0.833426,-0.68858 1.004413,-1.12858 z"
       sodipodi:nodetypes="cccccsccccccsccccsscccccsccccsccsccccscccccssccccccssscccccsccccccccccccsccsccccsscscccccccccscsccscsccscsccscccsccccscssccccscsccccscccscccscccsccscccscccccccccscssscscsccccccccssc" />
  </g>
</svg>
