<svg id="Capa_1" enable-background="new 0 0 512.108 512.108" height="512" viewBox="0 0 512.108 512.108" width="512" xmlns="http://www.w3.org/2000/svg"><path d="m466.995 512.054h-160.627v-192.423h-100.627v192.423h-160.628v-192.423c-18.546 0-34.477-10.644-41.573-27.778s-3.359-35.925 9.755-49.039l242.76-242.76 242.76 242.761c13.114 13.113 16.852 31.904 9.755 49.038s-23.027 27.778-41.573 27.778v192.423zm-130.627-30h100.628v-192.423h30c9.299 0 12.957-7.087 13.856-9.259.9-2.172 3.324-9.77-3.251-16.344 0 0-221.547-221.547-221.547-221.547l-221.547 221.547c-6.575 6.575-4.151 14.173-3.251 16.345.899 2.172 4.558 9.259 13.856 9.259h30v192.423h100.628v-192.424h160.627v192.423z" fill="#868686" data-original="#000000" style=""/></svg>
