<?xml version="1.0" ?><svg data-name="Layer 2" id="Layer_2" viewBox="0 0 32 32" xmlns="http://www.w3.org/2000/svg" style="fill:#868686;"><title/><path d="M17.1489,24.1582h-8.84a.5.5,0,0,1,0-1h8.84a.5.5,0,1,1,0,1Z"/><path d="M17.1489,21.0029h-8.84a.5.5,0,1,1,0-1h8.84a.5.5,0,0,1,0,1Z"/><path d="M17.1489,17.8477h-8.84a.5.5,0,1,1,0-1h8.84a.5.5,0,0,1,0,1Z"/><path d="M17.1489,14.6924h-8.84a.5.5,0,0,1,0-1h8.84a.5.5,0,0,1,0,1Z"/><path d="M13.9517,11.5361H8.3091a.5.5,0,0,1,0-1h5.6426a.5.5,0,0,1,0,1Z"/><path d="M13.9517,7.2373H8.3091a.5.5,0,0,1,0-1h5.6426a.5.5,0,0,1,0,1Z"/><path d="M23.8989,8.39h-.3105v-.31a.25.25,0,0,0-.5,0v.31h-.3106a.25.25,0,0,0,0,.5h.3106v.31a.25.25,0,0,0,.5,0V8.89h.3105a.25.25,0,0,0,0-.5Z"/><path d="M26.0483,10.0957a4.5865,4.5865,0,0,0-4.0966-4.5452V5.0674A1.068,1.068,0,0,0,20.8853,4H7.019A1.0682,1.0682,0,0,0,5.9517,5.0674V26.9326A1.0682,1.0682,0,0,0,7.019,28H20.8853a1.068,1.068,0,0,0,1.0664-1.0674V14.6418A4.5875,4.5875,0,0,0,26.0483,10.0957ZM6.9517,26.9326,7.019,5l13.9327.0674v.4831a4.57,4.57,0,0,0-.0024,9.0911L20.8853,27Zm14.5-13.24a3.5962,3.5962,0,1,1,3.5966-3.5967A3.6,3.6,0,0,1,21.4517,13.6924Z"/><path d="M21.7569,8.438a.3256.3256,0,0,0-.0373-.0611.3349.3349,0,0,0-.0341-.0469.3309.3309,0,0,0-.049-.0354.3238.3238,0,0,0-.0583-.0356l-.0127-.0078a.3361.3361,0,0,0-.0466-.007.3218.3218,0,0,0-.0671-.01,81.0746,81.0746,0,0,1-.1135.017l-.0126.0077a.3924.3924,0,0,0-.1788.1791L21.14,8.45l-1.1142,3.0617a.3322.3322,0,1,0,.6244.2272l.2958-.8127h1.0127l.2958.8127a.3322.3322,0,1,0,.6244-.2272L21.7641,8.45Zm-.5693,1.8235.2643-.7266.2645.7266Z"/></svg>